<svg xmlns="http://www.w3.org/2000/svg" xmlns:xlink="http://www.w3.org/1999/xlink" width="1080" zoomAndPan="magnify" viewBox="0 0 810 809.999993" height="1080" preserveAspectRatio="xMidYMid meet" version="1.0"><defs><clipPath id="856f0e9ae2"><path d="M 379 437 L 803.75 437 L 803.75 810 L 379 810 Z M 379 437 " clip-rule="nonzero"/></clipPath><clipPath id="f91d15ff80"><path d="M 379 0 L 803.75 0 L 803.75 373 L 379 373 Z M 379 0 " clip-rule="nonzero"/></clipPath></defs><path fill="#5a4ae3" d="M 10.300781 414.503906 L 106.773438 581.601562 C 110.160156 587.464844 116.414062 591.082031 123.191406 591.082031 L 316.148438 591.082031 C 322.921875 591.082031 329.175781 587.464844 332.566406 581.601562 L 429.050781 414.503906 C 432.4375 408.640625 432.4375 401.410156 429.050781 395.546875 L 332.566406 228.398438 C 329.175781 222.535156 322.921875 218.917969 316.148438 218.917969 L 123.179688 218.917969 C 116.402344 218.917969 110.148438 222.535156 106.761719 228.398438 L 10.289062 395.546875 C 6.902344 401.410156 6.902344 408.640625 10.300781 414.503906 Z M 134.136719 256.835938 L 305.203125 256.835938 L 390.742188 405.023438 L 305.203125 553.164062 L 134.136719 553.164062 L 48.609375 405.023438 Z M 134.136719 256.835938 " fill-opacity="1" fill-rule="nonzero"/><g clip-path="url(#856f0e9ae2)"><path fill="#5a4ae3" d="M 704.488281 446.785156 C 701.097656 440.917969 694.84375 437.304688 688.070312 437.304688 L 495.097656 437.304688 C 488.324219 437.304688 482.070312 440.917969 478.683594 446.785156 L 382.195312 613.894531 C 378.796875 619.757812 378.796875 626.988281 382.195312 632.851562 L 478.683594 799.960938 C 482.070312 805.828125 488.324219 809.441406 495.097656 809.441406 L 688.070312 809.441406 C 694.84375 809.441406 701.097656 805.828125 704.488281 799.960938 L 800.957031 632.851562 C 804.34375 626.988281 804.34375 619.757812 800.957031 613.894531 Z M 677.109375 771.523438 L 506.042969 771.523438 L 420.503906 623.371094 L 506.042969 475.222656 L 677.109375 475.222656 L 762.664062 623.371094 Z M 677.109375 771.523438 " fill-opacity="1" fill-rule="nonzero"/></g><g clip-path="url(#f91d15ff80)"><path fill="#5a4ae3" d="M 478.667969 363.265625 C 482.054688 369.132812 488.3125 372.746094 495.085938 372.746094 L 688.054688 372.746094 C 694.832031 372.746094 701.085938 369.132812 704.472656 363.265625 L 800.957031 196.167969 C 804.34375 190.304688 804.34375 183.074219 800.957031 177.210938 L 704.472656 10.039062 C 701.085938 4.171875 694.832031 0.558594 688.054688 0.558594 L 495.085938 0.558594 C 488.3125 0.558594 482.054688 4.171875 478.667969 10.039062 L 382.210938 177.210938 C 378.808594 183.074219 378.808594 190.304688 382.210938 196.167969 Z M 506.03125 38.476562 L 677.097656 38.476562 L 762.664062 186.691406 L 677.109375 334.84375 L 506.03125 334.84375 L 420.503906 186.691406 Z M 506.03125 38.476562 " fill-opacity="1" fill-rule="nonzero"/></g></svg>