<svg xmlns="http://www.w3.org/2000/svg" xmlns:xlink="http://www.w3.org/1999/xlink" width="810" zoomAndPan="magnify" viewBox="0 0 607.5 187.499995" height="250" preserveAspectRatio="xMidYMid meet" version="1.0"><defs><g/><clipPath id="c36bf200e9"><path d="M 68 28 L 141 28 L 141 92 L 68 92 Z M 68 28 " clip-rule="nonzero"/></clipPath><clipPath id="c2443ffd35"><path d="M -4.707031 109.636719 L 64.085938 -6.101562 L 181.753906 63.839844 L 112.960938 179.578125 Z M -4.707031 109.636719 " clip-rule="nonzero"/></clipPath><clipPath id="b4c8958319"><path d="M -4.707031 109.636719 L 64.085938 -6.101562 L 181.753906 63.839844 L 112.960938 179.578125 Z M -4.707031 109.636719 " clip-rule="nonzero"/></clipPath><clipPath id="2198d6f866"><path d="M 4 63 L 77 63 L 77 127 L 4 127 Z M 4 63 " clip-rule="nonzero"/></clipPath><clipPath id="f39447a8b4"><path d="M -4.707031 109.636719 L 64.085938 -6.101562 L 181.753906 63.839844 L 112.960938 179.578125 Z M -4.707031 109.636719 " clip-rule="nonzero"/></clipPath><clipPath id="4e3aebde26"><path d="M -4.707031 109.636719 L 64.085938 -6.101562 L 181.753906 63.839844 L 112.960938 179.578125 Z M -4.707031 109.636719 " clip-rule="nonzero"/></clipPath><clipPath id="df3df8c9e7"><path d="M 68 101 L 140 101 L 140 165 L 68 165 Z M 68 101 " clip-rule="nonzero"/></clipPath><clipPath id="023bf9e9b1"><path d="M -4.707031 109.636719 L 64.085938 -6.101562 L 181.753906 63.839844 L 112.960938 179.578125 Z M -4.707031 109.636719 " clip-rule="nonzero"/></clipPath><clipPath id="c5b6a6975e"><path d="M -4.707031 109.636719 L 64.085938 -6.101562 L 181.753906 63.839844 L 112.960938 179.578125 Z M -4.707031 109.636719 " clip-rule="nonzero"/></clipPath></defs><g clip-path="url(#c36bf200e9)"><g clip-path="url(#c2443ffd35)"><g clip-path="url(#b4c8958319)"><path fill="#5a4ae3" d="M 121.023438 28.671875 L 88.480469 28.257812 C 87.335938 28.246094 86.273438 28.839844 85.691406 29.824219 L 69.058594 57.800781 C 68.476562 58.785156 68.460938 60.003906 69.019531 61 L 84.933594 89.390625 C 85.492188 90.386719 86.539062 91.011719 87.679688 91.023438 L 120.234375 91.441406 C 121.375 91.457031 122.4375 90.859375 123.023438 89.878906 L 139.652344 61.898438 C 140.238281 60.914062 140.253906 59.695312 139.695312 58.699219 L 123.773438 30.304688 C 123.214844 29.308594 122.167969 28.683594 121.023438 28.671875 Z M 133.210938 60.21875 L 118.46875 85.023438 L 89.609375 84.652344 L 75.5 59.480469 L 90.246094 34.679688 L 119.097656 35.042969 Z M 133.210938 60.21875 " fill-opacity="1" fill-rule="nonzero"/></g></g></g><g clip-path="url(#2198d6f866)"><g clip-path="url(#f39447a8b4)"><g clip-path="url(#4e3aebde26)"><path fill="#5a4ae3" d="M 56.511719 126.546875 C 57.65625 126.5625 58.71875 125.964844 59.300781 124.984375 L 75.933594 97.003906 C 76.515625 96.019531 76.53125 94.800781 75.972656 93.804688 L 60.058594 65.414062 C 59.5 64.414062 58.453125 63.789062 57.308594 63.777344 L 24.761719 63.367188 C 23.621094 63.351562 22.558594 63.945312 21.972656 64.929688 L 5.34375 92.910156 C 4.757812 93.890625 4.742188 95.109375 5.300781 96.105469 L 21.21875 124.5 C 21.777344 125.496094 22.824219 126.117188 23.964844 126.132812 Z M 11.785156 94.589844 L 26.527344 69.785156 L 55.382812 70.148438 L 69.492188 95.320312 L 54.75 120.125 L 25.894531 119.761719 Z M 11.785156 94.589844 " fill-opacity="1" fill-rule="nonzero"/></g></g></g><g clip-path="url(#df3df8c9e7)"><g clip-path="url(#023bf9e9b1)"><g clip-path="url(#c5b6a6975e)"><path fill="#5a4ae3" d="M 88.085938 101 C 86.941406 100.988281 85.878906 101.582031 85.296875 102.566406 L 68.664062 130.546875 C 68.078125 131.527344 68.066406 132.746094 68.625 133.742188 L 84.535156 162.136719 C 85.09375 163.132812 86.144531 163.753906 87.285156 163.769531 L 119.839844 164.1875 C 120.984375 164.203125 122.046875 163.605469 122.628906 162.625 L 139.261719 134.644531 C 139.847656 133.660156 139.859375 132.441406 139.304688 131.445312 L 123.375 103.050781 C 122.820312 102.050781 121.769531 101.429688 120.628906 101.417969 Z M 132.820312 132.960938 L 118.078125 157.765625 L 89.210938 157.398438 L 75.101562 132.226562 L 89.847656 107.417969 L 118.703125 107.785156 Z M 132.820312 132.960938 " fill-opacity="1" fill-rule="nonzero"/></g></g></g><g fill="#000000" fill-opacity="1"><g transform="translate(174.67372, 125.599056)"><g><path d="M 64.84375 -81.75 L 64.84375 0 L 55.734375 0 L 55.734375 -8.125 L 57.28125 -14.34375 L 54.609375 -14.34375 C 53.429688 -10.039062 50.988281 -6.390625 47.28125 -3.390625 C 43.570312 -0.390625 38.566406 1.109375 32.265625 1.109375 C 26.921875 1.109375 22.28125 -0.148438 18.34375 -2.671875 C 14.414062 -5.191406 11.359375 -8.617188 9.171875 -12.953125 C 6.984375 -17.296875 5.890625 -22.210938 5.890625 -27.703125 C 5.890625 -33.179688 6.984375 -38.070312 9.171875 -42.375 C 11.359375 -46.675781 14.414062 -50.085938 18.34375 -52.609375 C 22.28125 -55.128906 26.921875 -56.390625 32.265625 -56.390625 C 38.566406 -56.390625 43.570312 -54.890625 47.28125 -51.890625 C 50.988281 -48.890625 53.429688 -45.203125 54.609375 -40.828125 L 57.28125 -40.828125 L 55.734375 -47.15625 L 55.734375 -81.75 Z M 55.734375 -27.703125 C 55.734375 -32.585938 54.785156 -36.566406 52.890625 -39.640625 C 51.003906 -42.722656 48.503906 -44.988281 45.390625 -46.4375 C 42.273438 -47.882812 38.785156 -48.609375 34.921875 -48.609375 C 29.210938 -48.609375 24.46875 -46.957031 20.6875 -43.65625 C 16.90625 -40.351562 15.015625 -35.035156 15.015625 -27.703125 C 15.015625 -20.285156 16.90625 -14.925781 20.6875 -11.625 C 24.46875 -8.320312 29.210938 -6.671875 34.921875 -6.671875 C 38.785156 -6.671875 42.273438 -7.394531 45.390625 -8.84375 C 48.503906 -10.289062 51.003906 -12.570312 52.890625 -15.6875 C 54.785156 -18.800781 55.734375 -22.804688 55.734375 -27.703125 Z M 55.734375 -27.703125 "/></g></g></g><g fill="#000000" fill-opacity="1"><g transform="translate(246.966085, 125.599056)"><g><path d="M 5.890625 -28.359375 C 5.890625 -34.296875 7.039062 -39.359375 9.34375 -43.546875 C 11.644531 -47.734375 14.816406 -50.921875 18.859375 -53.109375 C 22.898438 -55.296875 27.515625 -56.390625 32.703125 -56.390625 C 40.484375 -56.390625 46.726562 -54.035156 51.4375 -49.328125 C 56.15625 -44.617188 58.515625 -38.003906 58.515625 -29.484375 L 58.515625 -25.921875 L 14.796875 -25.921875 C 15.015625 -22.429688 15.753906 -19.203125 17.015625 -16.234375 C 18.273438 -13.273438 20.296875 -10.90625 23.078125 -9.125 C 25.859375 -7.34375 29.507812 -6.453125 34.03125 -6.453125 C 38.632812 -6.453125 42.414062 -7.546875 45.375 -9.734375 C 48.34375 -11.921875 50.3125 -15.128906 51.28125 -19.359375 L 60.40625 -19.359375 C 59.882812 -17.203125 59.03125 -14.9375 57.84375 -12.5625 C 56.65625 -10.195312 55.039062 -7.972656 53 -5.890625 C 50.957031 -3.816406 48.378906 -2.128906 45.265625 -0.828125 C 42.148438 0.460938 38.40625 1.109375 34.03125 1.109375 C 27.4375 1.109375 22.0625 -0.238281 17.90625 -2.9375 C 13.75 -5.644531 10.707031 -9.242188 8.78125 -13.734375 C 6.851562 -18.222656 5.890625 -23.097656 5.890625 -28.359375 Z M 14.796875 -32.8125 L 49.609375 -32.8125 C 49.609375 -37.257812 48.160156 -41.019531 45.265625 -44.09375 C 42.378906 -47.175781 38.191406 -48.71875 32.703125 -48.71875 C 27.285156 -48.71875 22.945312 -47.175781 19.6875 -44.09375 C 16.425781 -41.019531 14.796875 -37.257812 14.796875 -32.8125 Z M 14.796875 -32.8125 "/></g></g></g><g fill="#000000" fill-opacity="1"><g transform="translate(311.806703, 125.599056)"><g><path d="M 17.234375 0 L 8.125 0 L 8.125 -48.71875 C 8.125 -53.988281 10.679688 -56.507812 15.796875 -56.28125 L 46.5 -55.28125 L 46.5 -47.5 L 17.234375 -48.5 Z M 17.234375 0 "/></g></g></g><g fill="#000000" fill-opacity="1"><g transform="translate(360.631875, 125.599056)"><g><path d="M 76.203125 -56.390625 C 80.054688 -56.390625 83.242188 -55.441406 85.765625 -53.546875 C 88.285156 -51.660156 90.175781 -49.101562 91.4375 -45.875 C 92.695312 -42.65625 93.328125 -38.96875 93.328125 -34.8125 L 93.328125 0 L 84.203125 0 L 84.203125 -32.703125 C 84.203125 -38.046875 83.441406 -42.03125 81.921875 -44.65625 C 80.398438 -47.289062 77.378906 -48.609375 72.859375 -48.609375 C 67.367188 -48.609375 63.066406 -46.382812 59.953125 -41.9375 C 56.835938 -37.488281 55.28125 -31.628906 55.28125 -24.359375 L 55.28125 0 L 46.15625 0 L 46.15625 -32.703125 C 46.15625 -38.046875 45.394531 -42.03125 43.875 -44.65625 C 42.363281 -47.289062 39.34375 -48.609375 34.8125 -48.609375 C 29.320312 -48.609375 25.019531 -46.382812 21.90625 -41.9375 C 18.789062 -37.488281 17.234375 -31.628906 17.234375 -24.359375 L 17.234375 0 L 8.125 0 L 8.125 -55.28125 L 17.234375 -55.28125 L 17.234375 -45.828125 L 15.796875 -39.59375 L 18.359375 -39.59375 C 19.460938 -44.632812 21.570312 -48.691406 24.6875 -51.765625 C 27.800781 -54.847656 32.289062 -56.390625 38.15625 -56.390625 C 43.195312 -56.390625 47.070312 -54.832031 49.78125 -51.71875 C 52.488281 -48.601562 54.140625 -44.5625 54.734375 -39.59375 L 56.390625 -39.59375 C 57.503906 -44.632812 59.617188 -48.691406 62.734375 -51.765625 C 65.847656 -54.847656 70.335938 -56.390625 76.203125 -56.390625 Z M 76.203125 -56.390625 "/></g></g></g><g fill="#5a4ae3" fill-opacity="1"><g transform="translate(460.961048, 125.599056)"><g><path d="M 72.96875 0 L 63.953125 0 L 54.171875 -29.8125 L 22.578125 -29.8125 L 12.796875 0 L 3.671875 0 L 29.59375 -78.421875 L 47.046875 -78.421875 Z M 37.046875 -73.96875 L 25.140625 -37.59375 L 51.609375 -37.59375 L 39.59375 -73.96875 Z M 37.046875 -73.96875 "/></g></g></g><g fill="#5a4ae3" fill-opacity="1"><g transform="translate(537.702239, 125.599056)"><g><path d="M 51.171875 -78.421875 L 51.171875 -70.640625 L 33.703125 -70.640625 L 33.703125 -7.78125 L 51.171875 -7.78125 L 51.171875 0 L 7 0 L 7 -7.78125 L 24.578125 -7.78125 L 24.578125 -70.640625 L 7 -70.640625 L 7 -78.421875 Z M 51.171875 -78.421875 "/></g></g></g></svg>